<?xml version="1.0" standalone="no"?>
<!DOCTYPE svg PUBLIC "-//W3C//DTD SVG 20010904//EN"
 "http://www.w3.org/TR/2001/REC-SVG-20010904/DTD/svg10.dtd">
<svg version="1.0" xmlns="http://www.w3.org/2000/svg"
 width="421.000000pt" height="421.000000pt" viewBox="0 0 421.000000 421.000000"
 preserveAspectRatio="xMidYMid meet">
<metadata>
Created by potrace 1.14, written by Peter Selinger 2001-2017
</metadata>
<g transform="translate(0.000000,421.000000) scale(0.100000,-0.100000)"
fill="#000000" stroke="none">
<path d="M2761 2489 c-52 -10 -84 -30 -108 -66 -16 -24 -18 -58 -20 -294 -2
-271 4 -327 35 -363 59 -66 216 -65 255 1 8 14 28 18 26 6 -6 -36 2 -43 46
-43 44 0 45 1 46 33 0 28 0 252 -1 315 0 22 -2 23 -97 20 -104 -3 -99 0 -94
-53 1 -10 12 -15 36 -15 39 0 39 3 36 -125 -1 -62 -4 -73 -27 -92 -33 -30 -94
-31 -120 -2 -17 19 -19 40 -19 296 l0 275 24 19 c53 43 140 13 142 -48 1 -16
2 -50 2 -78 l2 -49 52 -2 c29 -1 56 2 59 8 8 13 8 104 -1 148 -7 42 -47 86
-89 100 -43 14 -133 18 -185 9z"/>
<path d="M124 2477 c-77 -29 -102 -68 -108 -172 -8 -124 39 -194 164 -245 100
-41 116 -69 111 -183 -2 -41 -44 -79 -83 -75 -44 4 -68 41 -73 113 -2 33 -4
63 -4 68 -1 4 -28 7 -61 7 l-60 0 0 -57 c0 -113 32 -171 109 -198 119 -42 260
6 291 99 28 85 13 205 -30 251 -12 12 -63 41 -114 64 -105 48 -126 72 -126
144 0 59 29 97 74 97 49 0 77 -35 80 -101 2 -30 4 -56 5 -59 1 -5 88 -5 112
-1 4 1 6 27 4 59 -2 31 -4 67 -4 79 -1 27 -45 79 -83 99 -38 20 -163 26 -204
11z"/>
<path d="M549 2447 c0 -23 0 -171 0 -330 0 -278 1 -288 22 -327 32 -56 74 -73
179 -73 100 0 146 17 175 66 19 30 20 55 23 368 l3 335 -61 1 -60 1 0 -325 0
-324 -25 -24 c-15 -16 -36 -25 -55 -25 -19 0 -40 9 -55 25 l-25 24 0 323 0
323 -60 2 -60 2 -1 -42z"/>
<path d="M1100 2108 l0 -378 65 0 65 0 0 155 0 155 73 0 c88 0 132 12 159 42
34 39 41 69 43 190 3 199 -11 211 -247 213 l-158 2 0 -379z m260 290 c19 -21
22 -39 22 -133 0 -93 -3 -106 -27 -130 -19 -20 -34 -25 -75 -25 l-50 0 0 155
0 155 55 0 c43 0 58 -5 75 -22z"/>
<path d="M1629 2456 c-1 -49 -1 -689 0 -708 1 -16 16 -18 172 -18 l170 0 -3
42 -3 43 -100 1 c-55 1 -102 2 -105 3 -3 0 -5 58 -5 128 l0 127 88 0 87 0 0
47 0 48 -87 3 -88 3 0 110 0 110 108 3 108 3 -3 42 -3 42 -167 1 -168 1 -1
-31z"/>
<path d="M2089 2486 c-1 0 -3 -171 -4 -378 l-1 -378 63 0 63 0 0 165 0 165 45
0 c33 0 47 -5 54 -19 6 -10 27 -84 47 -165 l36 -146 68 0 67 0 -19 68 c-10 37
-28 100 -39 141 -24 89 -42 125 -71 145 -19 13 -20 16 -5 16 30 0 69 32 86 71
13 28 17 63 16 136 -3 163 -19 175 -247 178 -87 2 -159 2 -159 1z m260 -84
c39 -31 35 -210 -5 -239 -10 -7 -44 -13 -76 -13 l-58 0 0 135 0 135 59 0 c41
0 65 -5 80 -18z"/>
<path d="M3167 2381 c117 -363 108 -319 108 -493 l-1 -158 61 0 61 0 1 163 1
162 71 209 c39 115 71 212 71 217 0 12 -99 7 -109 -6 -5 -5 -25 -64 -45 -130
-21 -66 -39 -124 -40 -130 -4 -12 -5 -12 -53 145 l-39 125 -60 1 -61 1 34
-106z"/>
<path d="M3650 2108 l0 -378 54 0 54 0 0 268 c0 147 1 272 2 277 1 6 10 -28
20 -75 11 -47 38 -172 62 -277 l42 -193 42 0 c44 0 46 2 61 80 2 14 18 88 35
165 16 77 37 174 45 215 9 41 18 78 22 82 3 4 6 -117 6 -268 l0 -275 54 3 55
3 1 368 c0 203 -2 372 -5 376 -3 4 -36 7 -75 7 l-70 -1 -42 -170 c-23 -93 -45
-183 -48 -200 -11 -54 -38 -156 -41 -153 -1 2 -16 64 -34 138 -17 74 -44 192
-61 261 l-30 126 -75 0 -74 0 0 -379z"/>
</g>
</svg>
