<svg width="67" height="13" viewBox="0 0 67 13" fill="none" xmlns="http://www.w3.org/2000/svg">
<path d="M3.76 12.14C3.10667 12.14 2.54 12.04 2.06 11.84C1.58 11.64 1.21333 11.2867 0.96 10.78C0.72 10.2733 0.6 9.56 0.6 8.64V7.96C0.92 7.96 1.24667 7.96 1.58 7.96C1.91333 7.96 2.24 7.96 2.56 7.96V8.8C2.56 9.36 2.61333 9.79333 2.72 10.1C2.82667 10.4067 2.97333 10.62 3.16 10.74C3.34667 10.8467 3.56 10.9 3.8 10.9C4.18667 10.9 4.49333 10.7733 4.72 10.52C4.96 10.2533 5.08 9.76 5.08 9.04C5.08 8.50667 5 8.10667 4.84 7.84C4.68 7.57333 4.42667 7.36 4.08 7.2C3.74667 7.02667 3.31333 6.83333 2.78 6.62C2.34 6.42 1.96 6.18667 1.64 5.92C1.32 5.65333 1.08 5.31333 0.92 4.9C0.76 4.48667 0.68 3.97333 0.68 3.36C0.68 2.61333 0.773333 2.00667 0.96 1.54C1.16 1.06 1.49333 0.713333 1.96 0.499999C2.42667 0.273333 3.05333 0.16 3.84 0.16C4.85333 0.16 5.62667 0.393333 6.16 0.859999C6.69333 1.31333 6.96 1.98 6.96 2.86V4.24C6.65333 4.24 6.34 4.24 6.02 4.24C5.71333 4.24 5.4 4.24 5.08 4.24V3.42C5.08 2.80667 4.98 2.36667 4.78 2.1C4.59333 1.82 4.28667 1.68 3.86 1.68C3.42 1.68 3.1 1.81333 2.9 2.08C2.71333 2.33333 2.62 2.74 2.62 3.3C2.62 3.78 2.71333 4.15333 2.9 4.42C3.08667 4.67333 3.32667 4.87333 3.62 5.02C3.92667 5.16667 4.24 5.3 4.56 5.42C5.16 5.64667 5.64667 5.88 6.02 6.12C6.39333 6.36 6.66667 6.68 6.84 7.08C7.01333 7.48 7.1 8.04667 7.1 8.78C7.1 9.62 6.96 10.2867 6.68 10.78C6.41333 11.26 6.02667 11.6067 5.52 11.82C5.02667 12.0333 4.44 12.14 3.76 12.14ZM12.1758 12.24C11.7224 12.24 11.3024 12.2067 10.9158 12.14C10.5291 12.0733 10.1958 11.94 9.91578 11.74C9.63578 11.54 9.41578 11.24 9.25578 10.84C9.09578 10.44 9.01578 9.9 9.01578 9.22V0.18H10.9358V9.72C10.9358 10.08 10.9891 10.36 11.0958 10.56C11.2158 10.7467 11.3691 10.8733 11.5558 10.94C11.7424 11.0067 11.9491 11.04 12.1758 11.04C12.4024 11.04 12.6091 11.0067 12.7958 10.94C12.9824 10.8733 13.1291 10.7467 13.2358 10.56C13.3558 10.36 13.4158 10.08 13.4158 9.72V0.18H15.3158V9.2C15.3158 9.88 15.2358 10.4267 15.0758 10.84C14.9291 11.24 14.7158 11.54 14.4358 11.74C14.1558 11.94 13.8224 12.0733 13.4358 12.14C13.0491 12.2067 12.6291 12.24 12.1758 12.24ZM17.6789 12V0.18H21.6789C22.4256 0.18 22.9989 0.346666 23.3989 0.679999C23.7989 1.01333 23.9989 1.50667 23.9989 2.16V4.26C23.9989 4.76667 23.9322 5.24 23.7989 5.68C23.6789 6.10667 23.4389 6.45333 23.0789 6.72C22.7322 6.98667 22.2256 7.12 21.5589 7.12H19.6789V12H17.6789ZM19.6789 6.04H20.8989C21.2989 6.04 21.5989 5.88667 21.7989 5.58C21.9989 5.26 22.0989 4.74667 22.0989 4.04V2.98C22.0989 2.35333 22.0122 1.90667 21.8389 1.64C21.6656 1.37333 21.4256 1.24 21.1189 1.24H19.6789V6.04ZM25.8914 12V0.18H31.2114V1.54H27.8914V5.12H30.6314V6.62H27.8914V10.68H31.2114V12H25.8914ZM33.0297 12V0.18H37.1097C37.8564 0.18 38.4297 0.346666 38.8297 0.679999C39.243 1.01333 39.4497 1.50667 39.4497 2.16V4.04C39.4497 4.69333 39.2697 5.22667 38.9097 5.64C38.5497 6.04 38.0164 6.26 37.3097 6.3C37.763 6.34 38.083 6.48667 38.2697 6.74C38.4697 6.99333 38.6497 7.38667 38.8097 7.92L39.9497 12H37.8297L36.8897 8.06C36.7964 7.72667 36.6897 7.43333 36.5697 7.18C36.4497 6.92667 36.2564 6.8 35.9897 6.8H35.0097V12H33.0297ZM35.0097 5.46H36.2897C36.7564 5.46 37.083 5.34 37.2697 5.1C37.4697 4.86 37.5697 4.49333 37.5697 4V2.5C37.5697 2.06 37.4764 1.74 37.2897 1.54C37.1164 1.34 36.843 1.24 36.4697 1.24H35.0097V5.46ZM44.2295 12.22C43.7762 12.22 43.3495 12.1467 42.9495 12C42.5495 11.8667 42.2229 11.5933 41.9695 11.18C41.7295 10.7533 41.6095 10.12 41.6095 9.28V2.68C41.6095 1.96 41.7429 1.41333 42.0095 1.04C42.2762 0.653333 42.6495 0.393333 43.1295 0.26C43.6095 0.113333 44.1629 0.039999 44.7895 0.039999C45.4162 0.039999 45.9695 0.113333 46.4495 0.26C46.9295 0.406666 47.3029 0.673333 47.5695 1.06C47.8495 1.43333 47.9895 1.97333 47.9895 2.68V4.28H46.1295V2.6C46.1295 2.2 46.0695 1.9 45.9495 1.7C45.8429 1.5 45.6895 1.36667 45.4895 1.3C45.3029 1.23333 45.0762 1.2 44.8095 1.2C44.5695 1.2 44.3495 1.23333 44.1495 1.3C43.9495 1.36667 43.7895 1.5 43.6695 1.7C43.5629 1.9 43.5095 2.2 43.5095 2.6V9.7C43.5095 10.1 43.5629 10.4 43.6695 10.6C43.7895 10.8 43.9495 10.9333 44.1495 11C44.3495 11.0667 44.5695 11.1 44.8095 11.1C45.1962 11.1 45.5095 10.9867 45.7495 10.76C46.0029 10.52 46.1295 10.1667 46.1295 9.7V7.3H44.9495V6.2H47.9895V12H46.5495L46.4495 11C46.4229 11.0533 46.3895 11.1133 46.3495 11.18C46.3095 11.2333 46.2762 11.28 46.2495 11.32C46.0895 11.56 45.8495 11.7733 45.5295 11.96C45.2229 12.1333 44.7895 12.22 44.2295 12.22ZM51.6173 12V6.92L49.4173 0.18H51.3173L52.5573 4.22L52.6573 4.84L52.7773 4.22L54.0773 0.18H55.8573L53.5373 7.02V12H51.6173ZM57.4719 12V0.18H59.8319L61.8119 8.58L63.8119 0.18H66.1519V12H64.4519V2.88L62.4719 12H61.1519L59.1719 2.88V12H57.4719Z" fill="white"/>
</svg>
